<svg width="408" height="372" viewBox="0 0 408 372" fill="none" xmlns="http://www.w3.org/2000/svg">
<mask id="mask0_3960_5831" style="mask-type:alpha" maskUnits="userSpaceOnUse" x="0" y="0" width="408" height="372">
<rect width="408" height="372" rx="42.2383" fill="#3EFFA5"/>
</mask>
<g mask="url(#mask0_3960_5831)">
<path d="M-0.151613 42.6041C-0.151612 13.4049 28.7673 -6.98682 56.2708 2.81865L232.421 65.619C244.144 69.7985 257.114 68.5949 267.867 62.3297L341.156 19.632C369.135 3.33104 404.297 23.2824 404.654 55.6622L407.681 329.999C407.94 353.507 388.955 372.703 365.445 372.703L42.0866 372.703C18.7591 372.703 -0.151619 353.792 -0.151619 330.465L-0.151613 42.6041Z" fill="#06E1E7"/>
<path d="M317.278 154.623C340.428 136.833 373.924 153.337 373.924 182.533L373.924 392.682C373.924 412.122 358.165 427.881 338.725 427.881L92.3355 427.881C72.8958 427.881 57.1369 412.122 57.1369 392.682L57.137 165.785C57.137 140.178 83.6091 123.141 106.916 133.748L236.84 192.877C248.688 198.269 262.545 196.682 272.867 188.75L317.278 154.623Z" fill="#8BF4F7"/>
<path d="M293.294 253.584C307.057 242.163 327.899 251.952 327.899 269.837L327.899 402.27C327.899 413.934 318.444 423.389 306.78 423.389L173.025 423.389C161.362 423.389 151.906 413.934 151.906 402.27L151.906 259.041C151.906 243.341 168.428 233.13 182.47 240.151L249.4 273.616C256.89 277.361 265.886 276.327 272.331 270.979L293.294 253.584Z" fill="#E9FEFF"/>
</g>
</svg>
